# xmcd
#
# Track frame offsets:
#	150
#	21967
#	40984
#	63991
#	83646
#	104146
#
# Disc length: 1676 seconds
#
# Revision: 1
# Processed by: cddbd v1.5.2PL0 Copyright (c) Steve Scherf et al.
# Submitted via: audiograbber 1.83.01
#
DISCID=4a068a06
DTITLE=Mike Dugan and The Blues Mission - From the Rough
DYEAR=2009
DGENRE=Blues
TTITLE0=A Bad Case of the Inbetweens
TTITLE1=Got A Good Feelin'
TTITLE2=Now You Got Your Way
TTITLE3=The Bogey Train
TTITLE4=Get Used To It
TTITLE5=Now You Got Your Way (Instrumental)
EXTD=
EXTT0=
EXTT1=
EXTT2=
EXTT3=
EXTT4=
EXTT5=
PLAYORDER=
